<svg xmlns="http://www.w3.org/2000/svg" viewBox="0 0 1142.95 106.67"><defs><style>.cls-1{fill:#fff;}</style></defs><title>logo</title><g id="Layer_2" data-name="Layer 2"><g id="Layer_1-2" data-name="Layer 1"><path class="cls-1" d="M1132.5,97.79V94.17h1.67c1.15,0,1.2.25,1.2,1.46l.23,2.15h2.64l0-.74L1138,97c-.19-.07-.21-.23-.21-1.56,0-1.55-.36-2-.94-2.39a2.48,2.48,0,0,0,1.18-2.07v-.08a3,3,0,0,0-.81-2,3.13,3.13,0,0,0-2.34-.83h-4.85v9.79Zm0-7.63h2.09c.58,0,1,.16,1,.91,0,.91-.4,1-1.18,1h-1.94c0-.39,0-1.51,0-1.89M1125,92.93a9.17,9.17,0,0,0,2.65,6.46,8.91,8.91,0,0,0,12.73,0,9.19,9.19,0,0,0,2.61-6.48,9,9,0,1,0-18,.05m16.1,0V93a7.25,7.25,0,0,1-2.06,5,7,7,0,0,1-10,0,7.28,7.28,0,0,1,0-10.21,7,7,0,0,1,5-2.13,7.17,7.17,0,0,1,7.12,7.21M364.22,62.54c-7.43.83-10.31-1.48-8.23-5.42,2-3.76,13.19-24.6,16.75-30.54s9.58-5.93,13-5.93l5.46-9.87-45.86,0L340,20.65c6.12,0,10.06,2.32,6.64,8,0,0-15.72,28.29-17.28,30.92S324.51,68,315.8,69.17L310,79.93c10.6-1.23,44.33-6.38,49.55-7.47Zm62.5-2.11c6.56-.94,8.61-2.28,13.35-10.33l16.14-28.47s5.49-10.89-8.89-10.89H413.21c-6.5,0-14.37,1-18.83,9.28L376.17,52.56C370.64,63,369.49,70.75,381,68.8c0,0,40.19-7.58,45.72-8.37M402.57,48.05c3.05-5.76,12.3-22.48,12.3-22.48,2.77-5.34,5.78-4.92,7.15-4.92h5.25c5.82,0,5.13,2.26,3.64,5.06S422.61,41,419,47.33c-2.36,4.13-4.42,4.76-7.6,5.61l-5.53.88c-3.6.42-6.62.5-3.32-5.77M326.38,31.3s13.16-20.64-9.53-20.53H252.43L247,20.65c7.73,0,9.27,2.61,6.07,8.44-3.42,6.21-17.38,31.23-21.14,38.51S226.24,79,219.84,79.68l-4.69,8.61c23-.87,49-3.28,62.76-4.65,17.59-1.74,21.62-4.27,28.61-16.06ZM267.43,74.79c-3.36.55-13.34,1.17-13.34,1.17l30.47-55.31h10.79c6.94,0,8.08,4.32,5.21,9.33L280,67.29c-2.61,4.08-6.12,6.47-12.58,7.5M163,23.38S144.37,56.67,141.12,62.1s-5.53,8.94-13,6l-4.77,8.44a143.37,143.37,0,0,0,34.42,9.64L162.62,77c-4.45-.64-11-.78-4.8-11.73l6.08-11.4h25.88s-6.43,11.74-8.28,15.37c-3.11,6.12-5.9,8.55-12.53,8.55L164.18,87a324.54,324.54,0,0,0,44.91,1.38l5-9c-4.37-.1-7.85-3.42-2.67-13.22,2.48-4.7,20.46-37,20.46-37s11.32-18.37-8.9-18.33H184.17s-13-1.5-21.17,12.61m40.19,5.7c-1.44,2.53-9,16.93-9,16.93l-25.83.06s6.45-11.37,9.84-18.15,7.31-7.22,11-7.22l6.23-.05c11.39,0,9.22,5.91,7.78,8.43m-92.41,8.85c-8.71,21.72-24.32,21.94-33.86,21.94L67.48,77.19c23.85,14.71,62.38,26.52,118.15,26.52,73.74,0,167-13.93,302.59-42.19l4.27-7.71C450.61,62.87,306,95.59,195.82,95.59c-52.14,0-72.18-9-96.37-24.84,0,0,29.31-4.14,38.7-26.77,8.69-20.91-2.8-33.24-23.5-33.24H48.31l-5.7,9.91c8,0,16,1.32,10.81,11.52,0,0-21.18,39.5-26.36,48.56s-7.88,11.54-22,11.54L0,102.1l61.69,0,4.76-9.86c-9.31,0-14.42-4.22-10.81-11C58.47,76,87.85,23.31,89.05,20.65H99.48c11.1,0,14.49,9.34,11.3,17.28m571.39,7c4.56,0,10,3.09,4.38,13,0,0-12.66,23-15,27.26s-4.49,7.06-14,7.06l-5.46,9.87H701.8l4.85-9.87c-7.78,0-12.14-2.39-8.71-9.17,1.16-2.32,4-6.94,6.2-10.92l8,0c4.83.33,6.95,1.89,3.53,8.28l10.87-.06,13.84-25.49-11.4.4c-2.18,4.11-4.56,6.18-11.69,6.22l-7.32,0,10.42-19.42s5.43-.39,7.7-.49,8.38-.24,5.81,6.85l17-.67L761.3,29S708,33,687.45,35.11Zm80.22-6c4.61-.23,12.18-1.19,6.74,8.84C763.53,58,750.07,82.25,747.9,86s-4.25,6.19-14.82,6.19l-5.39,9.89h82.73l13.13-23.76H803.43c-3.49,5.54-9.55,13.83-18.42,13.87l-4.9,0s-8.4,0-3.88-9.2l22.14-40.4a14.16,14.16,0,0,1,12.56-6.78l5.68-10.22S786.32,27.26,768,28.54Zm106.67-5.45,5.61-10c-7.36.15-42.68,1.63-49.56,1.87l-5.56,10.27c4.87-.21,11.33-1,15,7l11.15,22.82s-10.73,19.25-12.12,21.7-3.11,5.17-10.67,5.17l-5.29,9.87h47.27l4.31-9.87c-6.21,0-10.43-1.37-7.73-6.43l10.84-19.87S901.66,39.87,906.11,36s8.08-3.45,10.68-3.58l5.49-9.83c-4.94,0-31,.27-35,.43l-5.7,10.14c4.35,0,8.81,1.59,3.56,7L868,54.91s-3.45-8.82-5.9-14.66c-2.29-5.47,3.79-6.52,7-6.83m127,9.5,10.2-18c-28.4-2-61.26-2.3-78.23-2.27l-5.43,9.77c4.5.14,10.24.09,4.7,10.53-5.7,10.75-20.72,37.47-23.17,41.63s-4,7.58-14,7.63L884.76,102H965.5L977,80.52H956.28c-4.26,6.53-9.18,11.4-15.69,11.7h-12L943,65.88l8.62.06s6-.4,4.42,3.44l-2.27,4.2h10.67l13-23.45H966.82c-2.18,3.65-5,5.94-10.19,5.94H948.4l12.86-23s9,.43,11.17.7c3.42.42,5.55,4.75,3.9,9.18,2,0,13.47,0,19.69,0m-388.77-6.3c144.59-17.57,260-21.17,318.25-21.17,56.8,0,134.66,2.68,166.84,17.55,8.68,4,22.94,11.3,22.94,28.59,0,16-12.66,26.7-28.8,26.73-13.48,0-19.51-6-25.11-10.29,0,0,27.52-.43,34.1-13.53,6.77-13.49-1.18-26.92-29.19-32.33a454,454,0,0,0-52.18-6.68l-5,9.12c4.79.75,8.11,3.49,5.52,8.2-5.13,9.32-20.3,36.76-22.37,40.45s-5.08,9-13.69,9l-5.29,9.87h50.6l5.28-9.86c-5.91,0-13.06-1-6.32-13.17l22.23-40a61,61,0,0,1,7.54,1.08c8.19,1.85,19.19,7,14.67,16-3.6,7.16-10.64,8.85-28.06,8.85l-7.56,13.46a58.1,58.1,0,0,0,48.19,24.91c27.58,0,46.78-17.32,46.78-39.84,0-17.67-12.73-30.15-30.51-37.49C1064.88,13.06,1009.59,7.54,929,7.54c-154.65,0-266.72,15.31-317.93,21.91ZM518.85,92a12.94,12.94,0,0,0-13-14,14.94,14.94,0,0,0-14.56,14.09,13,13,0,0,0,13,14A15,15,0,0,0,518.85,92m-19.14.09c.21-3.49,2.75-6.34,5.7-6.36s5.18,2.81,5,6.31-2.75,6.34-5.69,6.34-5.18-2.79-5-6.29m78,.32A13.2,13.2,0,0,0,591,106.67a15.26,15.26,0,0,0,14.86-14.38A13.21,13.21,0,0,0,592.6,78.06a15.27,15.27,0,0,0-14.85,14.38m19.65-.11c-.19,3.49-2.73,6.34-5.69,6.36s-5.17-2.81-5-6.3,2.74-6.34,5.69-6.36,5.18,2.81,5,6.3M483,97.21l-92.82,5.87-20.45,1.07-.32.15,9.71-.52-10.57.67H482.8c4.73,0,4.9-7.28.17-7.25M608.09,82.55l13.74-5.47s-11.72-20-17.47-23.54c-5.46-3.34-17.64-7.47-18.85-7.88a2.23,2.23,0,0,0-.73-1.81c-.37-.24-3.27-.72-3.83-.94s-2.76.71-2.76.71-9.5-8.47-12.22-11.25-1-5.33,1.33-6.32,0,3.37,2,5.56c1.71,2.77,6.26,6,6.26,6s3.8,1.93,6.13-2.94c0,0,2.82-4.53-.23-7.42-4.1-3.88-7.56-8-10.52-9-2.61-.92-4.73-1.94-12.75,3.64C553.77,24.88,545,31,552.37,35.45c0,0,16.13,12,18,13.66s2-2,3.84-.88a26.26,26.26,0,0,0,4.57,2.57,6.65,6.65,0,0,0,2.33.74c1.23,0,3.14-1.11,3.7-1.44a1.93,1.93,0,0,0,.86-1.84c2.87,1.09,12.61,4.93,16.72,8.21,4.84,3.85,11.28,17.88,11.28,17.88l-6.44,4.55ZM564.45,53.92c2.92-.68,2.64-3.86.77-5.29s-16.4-11.08-16.4-11.08-3.74-2.77-6.8.8l-4.74,4.72S532,49,538.51,53.92Zm10.13-37.58c1.15,1.17,8.4,7.93,8.4,7.93s9.58.79,10.16-4.09c.68-5.69,2.59-5.36,2.59-5.36s3.33-2.41.56-6.63c0,0-2.62-4.42-6.13-6.2-2.36-1.2-10-5.36-13.81,3.78-.59,1.4-.79,3.25-1.33,4.59-.95,2.32-1.59,4.82-.44,6M597.52,69l.08-5c3.35,0,3.28-7.09-.13-7.06H502.7c-4,0-4.38,7-1.14,6.94l0,5.07c-3.26,0-3.22,6.61,1.08,6.58h95c3.53,0,3.12-6.2-.13-6.58m-86.68.43a3.09,3.09,0,0,1,0-6.18h76.6a3.09,3.09,0,0,1,0,6.18Z"/></g></g></svg>